<!DOCTYPE svg PUBLIC "-//W3C//DTD SVG 20010904//EN" "http://www.w3.org/TR/2001/REC-SVG-20010904/DTD/svg10.dtd">
<svg version="1.0" xmlns="http://www.w3.org/2000/svg" width="500px" height="500px" viewBox="0 0 5000 5000" preserveAspectRatio="xMidYMid meet">
<g id="layerbg1" fill="#a5c239" stroke="none">
 <path d="M1958 4650 c-122 -28 -119 -22 -46 -98 35 -37 90 -102 122 -144 32 -43 62 -76 66 -73 4 2 13 26 20 51 11 39 11 66 1 148 -7 55 -17 108 -22 118 -12 22 -40 22 -141 -2z"/>
 <path d="M2941 4627 c-6 -6 -11 -53 -11 -108 l0 -97 43 -64 c24 -35 79 -113 122 -173 44 -61 95 -138 112 -171 49 -92 101 -258 114 -364 6 -52 13 -100 15 -107 2 -8 46 8 126 47 221 106 475 170 672 170 41 0 77 4 80 8 7 11 -107 154 -202 254 -255 267 -611 484 -963 587 -69 20 -101 25 -108 18z"/>
 <path d="M2285 2786 c-19 -29 -87 -247 -80 -254 12 -12 181 -49 189 -42 5 5 7 65 4 134 -4 122 -5 126 -33 156 -35 36 -59 38 -80 6z"/>
 </g>
<g id="layerbg2" fill="#f0bc1e" stroke="none">
 <path d="M1740 2564 c-226 -22 -407 -73 -605 -170 -188 -93 -411 -268 -540 -423 -90 -107 -187 -253 -176 -264 16 -16 346 -21 461 -8 126 15 337 68 440 111 92 38 223 108 310 166 127 85 114 59 184 342 35 139 61 254 57 255 -3 2 -62 -2 -131 -9z"/>
 </g>
<g id="layerbg3" fill="#dcc528" stroke="none">
 <path d="M2225 2530 c-7 -12 20 -24 34 -16 5 4 13 1 16 -5 4 -5 13 -8 21 -5 7 3 16 1 20 -5 3 -6 12 -8 20 -5 7 3 16 1 19 -5 4 -5 11 -7 16 -3 5 3 7 10 3 15 -3 5 -9 7 -14 4 -5 -3 -12 0 -15 6 -4 5 -13 8 -21 5 -7 -3 -16 -1 -20 5 -3 6 -12 8 -20 5 -7 -3 -16 -1 -19 4 -8 13 -32 13 -40 0z"/>
 <path d="M2715 2338 c-2 -7 -1 -137 3 -288 4 -151 4 -301 1 -332 -10 -85 -37 -129 -90 -150 -53 -20 -53 -24 -1 -145 147 -342 381 -612 697 -808 l96 -59 -46 -23 c-58 -30 -50 -49 10 -23 73 31 202 109 203 122 34 445 -26 740 -223 1092 l-37 66 -28 -15 c-54 -28 -128 -11 -168 40 -12 14 -45 98 -74 186 l-52 159 -86 63 c-88 66 -181 127 -194 127 -4 0 -9 -6 -11 -12z"/>
 <path d="M2990 388 c-14 -6 -32 -10 -42 -9 -9 1 -19 -3 -22 -8 -4 -6 -13 -8 -20 -5 -8 3 -17 1 -20 -5 -9 -14 14 -25 26 -13 6 6 17 8 24 5 8 -3 20 0 28 6 7 6 15 8 18 6 9 -9 59 15 53 25 -7 12 -13 12 -45 -2z"/>
 <path d="M2715 330 c-8 -12 20 -24 35 -15 6 3 8 11 5 16 -8 12 -32 12 -40 -1z"/>
 <path d="M2165 320 c-8 -13 20 -24 41 -16 20 8 9 26 -16 26 -10 0 -22 -5 -25 -10z"/>
 <path d="M2625 320 c-3 -6 1 -13 9 -16 21 -8 49 3 41 16 -8 13 -42 13 -50 0z"/>
 <path d="M2295 310 c-3 -5 0 -13 8 -16 23 -8 82 0 82 11 0 14 -82 19 -90 5z"/>
 <path d="M2455 310 c-3 -5 0 -13 8 -16 23 -8 92 0 92 11 0 14 -92 19 -100 5z"/>
 </g>
<g id="layerbg4" fill="#d5322f" stroke="none">
 <path d="M1735 4589 c-142 -47 -372 -156 -493 -235 -285 -186 -544 -453 -713 -736 -314 -527 -393 -1171 -215 -1758 56 -187 82 -194 179 -52 89 131 172 227 275 317 281 246 635 397 989 421 57 4 107 12 112 18 5 6 29 86 52 176 38 144 43 178 43 270 -1 114 -15 199 -46 272 -20 46 -60 84 -78 73 -5 -3 -30 -38 -56 -77 -69 -104 -155 -191 -254 -257 -204 -136 -429 -172 -494 -79 -34 49 -8 122 57 158 109 60 233 179 328 313 50 71 115 195 173 331 62 146 172 289 286 373 135 101 231 206 214 235 -22 38 -139 180 -186 225 l-53 52 -120 -40z"/>
 </g>
<g id="layerbg5" fill="#138c96" stroke="none">
 <path d="M3955 3765 c-102 -16 -157 -30 -275 -67 -93 -29 -332 -137 -342 -154 -3 -5 1 -76 9 -158 10 -107 20 -160 34 -188 11 -21 106 -177 212 -346 223 -355 258 -435 227 -516 -10 -27 -65 -56 -107 -56 -61 0 -98 37 -246 245 -271 382 -338 474 -346 479 -5 3 -16 -3 -25 -13 -22 -24 -24 -15 125 -536 133 -466 145 -531 114 -628 l-17 -55 44 -79 c169 -299 246 -668 209 -996 -4 -38 -3 -71 2 -74 11 -6 117 64 222 148 548 435 857 1103 832 1794 -7 184 -26 322 -68 482 -56 218 -157 448 -279 637 l-62 96 -92 -1 c-50 -1 -127 -7 -171 -14z"/>
 <path d="M2719 2833 c-15 -17 -16 -52 -11 -334 l2 -157 72 -43 c40 -24 103 -68 140 -96 47 -36 70 -49 74 -40 6 18 -194 628 -214 650 -28 32 -48 38 -63 20z"/>
 </g>
<g id="layerbg6" fill="#ebcb1f" stroke="none">
 <path d="M2203 2528 c-6 -7 -58 -166 -116 -352 -121 -388 -120 -387 -214 -394 -74 -5 -121 23 -142 85 -13 36 -13 50 1 115 9 40 13 76 9 81 -4 4 -27 -8 -52 -26 -97 -73 -262 -164 -391 -216 -102 -40 -295 -87 -419 -102 -119 -14 -456 -7 -488 10 -33 18 -33 -3 0 -86 159 -404 504 -799 909 -1043 266 -160 602 -273 880 -296 91 -7 396 -7 465 0 28 3 77 8 110 11 33 4 78 11 100 18 22 6 45 11 50 12 6 0 15 3 20 6 6 3 37 11 70 18 78 17 210 59 255 81 101 49 186 94 194 101 5 5 -5 16 -23 26 -18 10 -78 48 -134 84 -298 191 -511 451 -652 793 l-41 100 -53 12 c-59 13 -96 42 -110 88 -6 17 -15 210 -21 430 -6 219 -13 402 -15 406 -3 4 -37 15 -77 25 -40 9 -80 19 -89 21 -9 3 -21 -1 -26 -8z"/>
 </g>
<g id="layerbg7" fill="#ffffff" stroke="none">
 <path d="M0 2500 l0 -2500 2500 0 2500 0 0 2500 0 2500 -2500 0 -2500 0 0 -2500z m2098 2065 c30 -191 -8 -270 -204 -416 -138 -104 -254 -250 -320 -405 -141 -331 -267 -492 -495 -633 -77 -48 -100 -125 -53 -181 37 -43 75 -60 136 -60 214 1 483 170 636 400 24 36 49 65 55 65 22 0 56 -67 73 -143 11 -46 18 -119 18 -182 0 -101 -4 -121 -123 -590 -91 -359 -121 -495 -117 -524 5 -46 30 -82 77 -114 28 -20 43 -23 92 -20 50 4 63 9 93 39 33 33 45 67 170 470 74 239 142 453 150 477 18 47 40 54 70 21 17 -19 19 -57 31 -547 7 -290 17 -543 23 -563 33 -117 214 -159 283 -66 54 72 55 96 37 820 -5 207 -6 387 -2 398 8 20 9 20 29 2 16 -13 66 -153 178 -498 154 -468 158 -481 199 -522 87 -87 196 -64 226 48 24 87 8 170 -123 629 -132 463 -143 505 -129 514 8 5 62 -67 345 -469 171 -242 223 -281 318 -241 77 32 94 88 58 198 -17 54 -72 150 -216 380 -106 169 -201 325 -212 346 -15 30 -24 89 -41 262 -22 244 -33 304 -79 429 -40 109 -82 182 -187 326 -148 203 -144 194 -144 306 l0 97 98 -29 c400 -116 781 -364 1044 -678 436 -522 607 -1192 472 -1860 -103 -513 -400 -984 -821 -1300 -299 -225 -639 -366 -1018 -423 -135 -20 -502 -17 -636 5 -785 130 -1431 651 -1702 1372 -94 250 -134 448 -144 716 -28 763 341 1477 982 1902 193 128 470 246 708 302 152 35 149 36 165 -60z"/>
 </g>
<g id="layer101" fill="#a5c239" stroke="none">
 <path d="M2025 4655 c-5 -2 -45 -11 -88 -20 l-78 -17 68 -72 c38 -39 91 -102 118 -139 l50 -69 14 47 c13 39 13 62 2 146 -7 55 -15 107 -18 115 -5 13 -43 18 -68 9z"/>
 <path d="M2945 4622 c-3 -3 -5 -49 -5 -103 l0 -97 43 -64 c24 -35 79 -113 122 -173 44 -61 95 -138 112 -171 51 -95 102 -261 115 -372 l12 -99 121 58 c219 105 450 163 683 172 l63 2 -66 82 c-235 298 -551 533 -910 678 -102 41 -282 95 -290 87z"/>
 <path d="M2289 2778 c-13 -24 -81 -240 -77 -243 2 -1 37 -9 78 -19 41 -10 81 -20 89 -23 11 -5 13 17 9 125 -3 122 -5 133 -28 157 -29 31 -55 32 -71 3z"/>
 </g>
<g id="layer102" fill="#f0bc1e" stroke="none">
 <path d="M1740 2555 c-383 -39 -702 -179 -985 -433 -111 -99 -179 -177 -273 -315 l-63 -92 53 -7 c85 -10 326 -9 418 2 110 13 314 64 410 102 126 49 320 159 418 236 19 15 34 62 87 270 34 139 62 251 61 251 0 -1 -57 -7 -126 -14z"/>
 </g>
<g id="layer103" fill="#dcc528" stroke="none">
 <path d="M2238 2523 c7 -3 16 -2 19 1 4 3 -2 6 -13 5 -11 0 -14 -3 -6 -6z"/>
 <path d="M2283 2513 c4 -3 10 -3 14 0 3 4 0 7 -7 7 -7 0 -10 -3 -7 -7z"/>
 <path d="M2323 2503 c4 -3 10 -3 14 0 3 4 0 7 -7 7 -7 0 -10 -3 -7 -7z"/>
 <path d="M2724 2213 c11 -223 9 -509 -4 -550 -20 -59 -47 -91 -91 -104 -21 -7 -39 -14 -39 -15 0 -16 73 -180 117 -264 150 -285 387 -527 677 -690 l58 -33 -33 -18 c-19 -10 -30 -18 -25 -19 17 0 193 103 194 114 0 6 4 79 8 161 15 329 -63 638 -238 942 -22 39 -25 41 -48 27 -52 -28 -127 -9 -172 44 -17 20 -46 91 -79 190 l-52 158 -81 61 c-87 64 -178 123 -191 123 -4 0 -5 -57 -1 -127z"/>
 <path d="M403 1713 c4 -3 10 -3 14 0 3 4 0 7 -7 7 -7 0 -10 -3 -7 -7z"/>
 <path d="M3273 473 c4 -3 10 -3 14 0 3 4 0 7 -7 7 -7 0 -10 -3 -7 -7z"/>
 <path d="M3013 383 c4 -3 10 -3 14 0 3 4 0 7 -7 7 -7 0 -10 -3 -7 -7z"/>
 <path d="M2983 373 c4 -3 10 -3 14 0 3 4 0 7 -7 7 -7 0 -10 -3 -7 -7z"/>
 <path d="M2938 363 c7 -3 16 -2 19 1 4 3 -2 6 -13 5 -11 0 -14 -3 -6 -6z"/>
 <path d="M2893 353 c4 -3 10 -3 14 0 3 4 0 7 -7 7 -7 0 -10 -3 -7 -7z"/>
 <path d="M2728 323 c7 -3 16 -2 19 1 4 3 -2 6 -13 5 -11 0 -14 -3 -6 -6z"/>
 <path d="M2178 313 c6 -2 18 -2 25 0 6 3 1 5 -13 5 -14 0 -19 -2 -12 -5z"/>
 <path d="M2638 313 c6 -2 18 -2 25 0 6 3 1 5 -13 5 -14 0 -19 -2 -12 -5z"/>
 <path d="M2318 303 c12 -2 32 -2 45 0 12 2 2 4 -23 4 -25 0 -35 -2 -22 -4z"/>
 <path d="M2483 303 c15 -2 37 -2 50 0 12 2 0 4 -28 4 -27 0 -38 -2 -22 -4z"/>
 </g>
<g id="layer104" fill="#d5322f" stroke="none">
 <path d="M1735 4579 c-66 -22 -184 -71 -263 -109 -241 -117 -411 -239 -602 -430 -430 -430 -659 -1012 -637 -1619 8 -200 26 -328 73 -498 44 -160 61 -197 94 -200 21 -3 34 10 87 90 200 299 485 521 833 650 124 46 265 76 420 91 l125 11 44 165 c39 149 44 176 44 280 0 119 -18 222 -49 283 -16 30 -41 56 -56 57 -3 0 -28 -32 -54 -72 -155 -232 -416 -397 -632 -398 -158 0 -207 150 -73 227 208 120 356 311 495 637 63 147 177 295 295 383 134 99 222 196 205 225 -21 36 -138 179 -181 220 l-48 47 -120 -40z"/>
 </g>
<g id="layer105" fill="#138c96" stroke="none">
 <path d="M3955 3755 c-174 -28 -330 -77 -492 -155 -119 -57 -123 -60 -118 -87 2 -15 9 -84 16 -152 7 -87 17 -137 30 -163 11 -21 106 -177 212 -346 226 -361 263 -446 224 -522 -15 -29 -70 -59 -110 -60 -65 -1 -108 41 -260 255 -344 484 -338 477 -353 464 -20 -16 -18 -23 123 -519 137 -482 149 -546 118 -643 l-17 -55 44 -79 c168 -299 246 -668 209 -995 -4 -38 -4 -68 -1 -68 4 0 40 23 81 51 542 373 882 948 950 1609 14 138 7 392 -16 540 -46 296 -161 600 -321 848 l-59 92 -90 -1 c-49 -1 -126 -7 -170 -14z"/>
 <path d="M2720 2815 c-6 -15 -7 -113 -3 -248 l6 -223 65 -39 c36 -22 96 -63 134 -92 37 -29 68 -49 68 -44 0 18 -203 627 -213 639 -6 7 -19 18 -29 23 -15 8 -20 5 -28 -16z"/>
 </g>
<g id="layer106" fill="#ebcb1f" stroke="none">
 <path d="M2205 2518 c-3 -7 -52 -163 -110 -347 -121 -388 -123 -392 -222 -399 -48 -3 -64 0 -93 20 -19 13 -44 41 -54 62 -17 36 -18 47 -8 106 6 37 15 75 19 86 7 18 6 18 -17 2 -146 -103 -276 -177 -400 -228 -103 -43 -314 -96 -440 -111 -122 -14 -457 -7 -489 11 -12 6 -21 8 -21 6 0 -17 69 -175 110 -253 292 -549 798 -949 1394 -1103 132 -34 205 -48 306 -56 91 -7 396 -7 465 0 28 3 77 8 110 11 33 4 78 11 100 18 22 6 45 11 50 12 6 0 15 3 20 6 6 3 37 11 70 18 78 17 211 59 255 81 169 84 189 96 178 103 -203 122 -308 200 -428 317 -149 147 -305 389 -385 597 -27 71 -27 71 -72 78 -53 8 -107 52 -122 98 -5 18 -12 131 -15 252 -4 121 -9 302 -12 402 l-6 181 -72 17 c-39 9 -79 19 -89 22 -9 2 -19 -2 -22 -9z"/>
 </g>
<g id="layer107" fill="#ffffff" stroke="none">
 <path d="M0 2500 l0 -2500 2500 0 2500 0 0 2500 0 2500 -2500 0 -2500 0 0 -2500z m2094 2143 c13 -44 28 -188 23 -222 -12 -90 -78 -174 -223 -282 -134 -100 -245 -241 -310 -395 -139 -326 -287 -517 -495 -637 -74 -42 -100 -118 -58 -171 30 -39 71 -56 131 -56 216 1 477 166 632 398 26 40 51 72 54 72 15 -1 40 -27 56 -57 29 -58 48 -164 49 -278 1 -109 0 -116 -122 -595 -127 -504 -132 -532 -96 -586 30 -46 74 -66 138 -61 102 6 98 -2 253 498 74 239 142 454 152 479 21 54 47 62 82 25 l24 -26 13 -527 c7 -292 17 -543 23 -564 6 -20 26 -50 45 -66 63 -56 182 -53 223 6 49 69 50 102 32 815 -10 395 -7 437 28 418 10 -5 23 -16 29 -23 6 -7 82 -229 168 -493 147 -448 160 -482 194 -517 56 -55 136 -63 181 -18 10 10 24 38 31 62 23 86 6 170 -124 628 -141 496 -143 503 -123 519 15 13 9 20 353 -464 152 -214 195 -256 260 -255 40 1 95 31 110 60 39 76 2 161 -224 522 -106 169 -201 325 -212 346 -15 30 -24 89 -41 262 -22 244 -33 304 -79 429 -40 109 -82 182 -187 326 -148 203 -144 194 -144 305 0 53 2 99 5 102 8 8 187 -46 287 -86 508 -205 919 -582 1157 -1061 146 -296 215 -572 228 -910 38 -1044 -676 -1971 -1702 -2210 -176 -41 -269 -50 -500 -50 -241 1 -345 13 -542 65 -687 180 -1251 683 -1496 1335 -94 250 -134 448 -144 716 -28 765 344 1482 992 1912 193 128 472 247 708 302 127 29 154 30 161 8z"/>
 </g>

</svg>